<svg xmlns="http://www.w3.org/2000/svg" viewBox="0 0 159.44 55"><defs><style>.cls-1{fill:#034ea2;}.cls-2{fill:#ffc40c;}</style></defs><title>Asset 1</title><g id="Layer_2" data-name="Layer 2"><g id="Layer_1-2" data-name="Layer 1"><path class="cls-1" d="M151.6,35V14.22c0-.28-.12-.39-.4-.39h-4.64c-.27,0-.38.11-.38.39V36.5c0,4,1.53,4.7,5.08,4.7a.32.32,0,0,0,.27-.1c.09-.07.07-.28.07-.28Z"/><path class="cls-1" d="M66.37,35.16V14.38c0-.28-.13-.4-.4-.4H61.33c-.28,0-.4.12-.4.4V36.66c0,4,1.54,4.7,5.08,4.7a.35.35,0,0,0,.29-.1c.07-.07.07-.28.07-.28Z"/><path class="cls-1" d="M80.58,41.21c-.28,0-.4-.11-.4-.39V26.19A.2.2,0,0,0,80,26H78.78c-.27,0-.39-.12-.39-.39V22.33c0-.27.12-.39.39-.39H80a.21.21,0,0,0,.23-.23V20.34c0-4.56,2.11-6.51,6.63-6.51h3c.27,0,.39.11.39.39v3.52c0,.28-.12.39-.39.39h-2c-1.72,0-2.14.43-2.14,2v1.55a.2.2,0,0,0,.23.23h2.49c.27,0,.39.12.39.39v3.24c0,.27-.12.39-.39.39H85.84c-.16,0-.23.07-.23.23V40.82c0,.28-.12.39-.39.39Z"/><path class="cls-1" d="M70.44,18.1c-.27,0-.39-.11-.39-.39V14.22c0-.28.13-.39.4-.39h4.68c.27,0,.39.11.39.39v3.49c0,.28-.12.39-.39.39Zm0,23.11c-.27,0-.39-.11-.39-.39V22.33c0-.27.12-.39.39-.39h4.68c.27,0,.39.12.39.39V40.82c0,.28-.12.39-.39.39Z"/><path class="cls-1" d="M110.11,35.91a14.55,14.55,0,0,1-.53-4.53,14.44,14.44,0,0,1,.53-4.52c1.09-3.48,4.1-5.35,8.16-5.35a8.4,8.4,0,0,1,7.14,3.55.4.4,0,0,1-.08.55l-3.4,2.22a.39.39,0,0,1-.58-.08,3.57,3.57,0,0,0-3-1.64,2.75,2.75,0,0,0-2.93,2,10.54,10.54,0,0,0-.35,3.24,10.54,10.54,0,0,0,.35,3.24,2.75,2.75,0,0,0,2.93,2,3.57,3.57,0,0,0,3-1.64.39.39,0,0,1,.58-.08l3.4,2.23a.4.4,0,0,1,.08.55,8.38,8.38,0,0,1-7.14,3.54c-4.06,0-7.06-1.87-8.16-5.34"/><path class="cls-1" d="M126.83,35.87a14.51,14.51,0,0,1-.62-4.49,14.1,14.1,0,0,1,.58-4.52c1.09-3.4,4.1-5.35,8.11-5.35s7.07,2,8.16,5.31a20.81,20.81,0,0,1,.51,5.81c0,.27-.16.39-.44.39H131.92a.21.21,0,0,0-.23.23,4.71,4.71,0,0,0,.13,1c.51,1.68,1.83,2.5,3.91,2.51a6.09,6.09,0,0,0,3.47-1c.7-.48.68-.65,1.07-.34l2.91,2.09c.26.19.23.35,0,.54a10.45,10.45,0,0,1-8,3.16c-4.25,0-7.26-2-8.35-5.38m11.24-6.48a.2.2,0,0,0,.23-.23,4.85,4.85,0,0,0-.2-1.41A2.87,2.87,0,0,0,135,25.69a3.28,3.28,0,0,0-3.26,2.06,5.65,5.65,0,0,0-.19,1.41.21.21,0,0,0,.23.23Z"/><path class="cls-1" d="M90.84,35.87a14.83,14.83,0,0,1-.61-4.49,14.1,14.1,0,0,1,.58-4.52c1.09-3.4,4.1-5.35,8.11-5.35s7.07,2,8.16,5.31a21.28,21.28,0,0,1,.5,5.81c0,.27-.15.39-.42.39H95.94a.21.21,0,0,0-.23.23,3.76,3.76,0,0,0,.14,1c.5,1.68,1.82,2.5,3.9,2.51a6.15,6.15,0,0,0,3.48-1c.69-.48.68-.65,1.06-.34l2.91,2.09c.26.19.23.35,0,.54a10.49,10.49,0,0,1-8,3.16c-4.26,0-7.26-2-8.36-5.38m11.24-6.48a.21.21,0,0,0,.24-.23,5.22,5.22,0,0,0-.2-1.41,2.87,2.87,0,0,0-3.06-2.06,3.25,3.25,0,0,0-3.25,2.06,4.85,4.85,0,0,0-.2,1.41.2.2,0,0,0,.23.23Z"/><path class="cls-1" d="M159.44,35V14.22c0-.28-.11-.39-.39-.39h-4.64c-.27,0-.39.11-.39.39V36.5c0,4,1.54,4.7,5.07,4.7a.36.36,0,0,0,.29-.1c.07-.07.06-.28.06-.28Z"/><path class="cls-2" d="M50,12.86A26.78,26.78,0,0,0,32.86.74,26.82,26.82,0,0,0,15.37,2.48,26.52,26.52,0,0,0,7.13,8.24,27.25,27.25,0,0,0,.72,18.61l0,.11c0,.14-.09.27-.13.41C-.78,23.6.47,26.06,2.44,24l.23-.27.09-.1a29.66,29.66,0,0,1,6-5.31h0c.93-.64,1.9-1.25,2.91-1.82a22.62,22.62,0,0,1,3.47-1.7,2.68,2.68,0,0,0,1.32-1.93s0,0,0-.08,0,0,0,0A5.69,5.69,0,0,1,21.59,8a5.79,5.79,0,0,1,3.29.53,6,6,0,0,1,3.39,4.54,6.15,6.15,0,0,1-1,4.33,1.37,1.37,0,0,1-.15.21l-.05.06h0a5.84,5.84,0,0,1-2.75,2,6.3,6.3,0,0,1-2,.4h0A3.63,3.63,0,0,1,21,19.91a4.58,4.58,0,0,1-1.39-.5,7,7,0,0,1-1.49-.9,1.11,1.11,0,0,0-.52-.28,1.7,1.7,0,0,0-.94.11h0a1.87,1.87,0,0,0-.3.17c-.88.73-1.71,1.5-2.5,2.3A45.62,45.62,0,0,0,9.21,26.7q-.65,1-1.23,2.13c-.36.68-.7,1.36-1,2.05a36.93,36.93,0,0,0-1.35,3.54.84.84,0,0,0,0,.17,2.25,2.25,0,0,0-.08.24c0,.08,0,.16-.07.23-2.52,8.63,2,13.61,5.81,8.41.21-.33.42-.66.64-1h0C15.86,35.59,24,30.61,24,30.61h0c.5-.31,1-.62,1.52-.92h0l.09-.05A41.36,41.36,0,0,1,30,27.49a25.09,25.09,0,0,1,3.88-1.42,2.61,2.61,0,0,0,1.73-2h0a5.73,5.73,0,0,1,3.1-3.91,6.3,6.3,0,0,1,1.43-.52,6,6,0,0,1,1.57-.13h0a2.75,2.75,0,0,1,.86.1,6,6,0,0,1-.33,11.86,5.77,5.77,0,0,1-4.34-1.1,3.59,3.59,0,0,0-2.88,0,32.15,32.15,0,0,0-3.52,2.23A40.06,40.06,0,0,0,27,36.39a33.8,33.8,0,0,0-3.84,4.78l-.18.28,0,.07a35.86,35.86,0,0,0-3.37,7l-.22.66c-1.07,3.62,1.25,5.07,3.94,5.59a21.14,21.14,0,0,0,5.13.18l.47,0c.77-.1,1.53-.18,2.29-.31A27.07,27.07,0,0,0,45,48a26.86,26.86,0,0,0,8.89-16.64,26.66,26.66,0,0,0-4-18.47"/></g></g></svg>